<?xml version="1.0" encoding="UTF-8" standalone="no"?>
<svg
   xmlns:dc="http://purl.org/dc/elements/1.1/"
   xmlns:cc="http://creativecommons.org/ns#"
   xmlns:rdf="http://www.w3.org/1999/02/22-rdf-syntax-ns#"
   xmlns:svg="http://www.w3.org/2000/svg"
   xmlns="http://www.w3.org/2000/svg"
   xmlns:sodipodi="http://sodipodi.sourceforge.net/DTD/sodipodi-0.dtd"
   xmlns:inkscape="http://www.inkscape.org/namespaces/inkscape"
   sodipodi:docname="prov.svg"
   inkscape:version="1.0 (4035a4fb49, 2020-05-01)"
   id="svg8"
   version="1.1"
   viewBox="0 0 210 297"
   height="297mm"
   width="210mm">
  <defs
     id="defs2" />
  <sodipodi:namedview
     inkscape:window-maximized="0"
     inkscape:window-y="40"
     inkscape:window-x="26"
     inkscape:window-height="728"
     inkscape:window-width="1274"
     showgrid="false"
     inkscape:document-rotation="0"
     inkscape:current-layer="layer1"
     inkscape:document-units="mm"
     inkscape:cy="353.91441"
     inkscape:cx="554.59497"
     inkscape:zoom="0.7"
     inkscape:pageshadow="2"
     inkscape:pageopacity="0.0"
     borderopacity="1.0"
     bordercolor="#666666"
     pagecolor="#ffffff"
     id="base" />
  <metadata
     id="metadata5">
    <rdf:RDF>
      <cc:Work
         rdf:about="">
        <dc:format>image/svg+xml</dc:format>
        <dc:type
           rdf:resource="http://purl.org/dc/dcmitype/StillImage" />
        <dc:title></dc:title>
      </cc:Work>
    </rdf:RDF>
  </metadata>
  <g
     id="layer1"
     inkscape:groupmode="layer"
     inkscape:label="Layer 1">
    <path
       id="path999"
       d="m 108.77639,122.34227 0.0212,-8.52084 h 39 39 l 0.0242,8.16667 c 0.0133,4.49167 0.002,8.32604 -0.0259,8.52083 l -0.0501,0.35417 h -38.99537 -38.99528 z m 0.0897,-11.33334 c 1.28592,-3.0034 8.43325,-18.886081 8.53163,-18.95885 0.1113,-0.08232 1.50424,-0.10012 6.52074,-0.08333 l 6.3792,0.02135 0.0218,3.229166 0.0218,3.229167 h -1.87777 c -1.8676,0 -1.8782,0.001 -1.95929,0.187502 -0.12893,0.29649 -1.49823,4.958565 -1.49823,5.101025 0,0.115 2.33098,0.12815 22.71395,0.12815 21.59325,0 22.71182,-0.007 22.67072,-0.14583 -0.85851,-2.89588 -1.50398,-5.011255 -1.56382,-5.125005 -0.0695,-0.132143 -0.24865,-0.145842 -1.90711,-0.145842 h -1.8304 v -3.25 -3.25 h 6.40375 c 5.99494,0 6.41184,0.0093 6.53056,0.145833 0.0884,0.101676 7.81814,17.392524 8.45655,18.916674 0.0349,0.0832 -7.75889,0.10417 -38.80753,0.10417 -31.04917,0 -38.84221,-0.0209 -38.80657,-0.10417 z m 23.6399,-22.273451 c 0,-10.291995 0.0214,-12.969139 0.10417,-13.000716 0.0573,-0.02187 2.90936,-0.03007 6.33793,-0.01822 l 6.23376,0.02155 -0.6921,0.803671 c -1.07422,1.247404 -1.54338,2.136577 -1.78007,3.373632 -0.28736,1.501867 0.009,3.271213 0.70292,4.194533 1.15092,1.531725 2.976,1.82096 5.06738,0.803066 0.5195,-0.252846 2.50568,-1.62408 6.76466,-4.670244 3.31608,-2.371767 6.15526,-4.364958 6.30929,-4.429314 0.15402,-0.06436 0.50625,-0.117011 0.78272,-0.117011 h 0.50268 v 13 13.000004 h -15.16667 -15.16667 z m 13.20127,-5.485951 c -0.63403,-0.288103 -0.90884,-1.060777 -0.8465,-2.380036 0.0757,-1.602053 -0.16205,-1.263168 4.54673,-6.480953 4.44815,-4.928976 4.62281,-5.155138 4.43071,-5.73718 -0.11319,-0.34298 -0.28437,-0.470273 -0.96166,-0.715108 -0.66846,-0.241641 -2.23783,-0.266231 -3.03721,-0.04759 -1.04707,0.286385 -1.81439,0.747252 -2.10799,1.266098 -0.0519,0.09167 -0.41635,1.104167 -0.80994,2.25 l -0.71562,2.083334 -3.05466,0.02186 -3.05466,0.02186 1.03144,-3.063522 c 1.87997,-5.583745 2.03369,-5.92134 3.25309,-7.14453 0.86495,-0.867635 1.48955,-1.269061 8.70773,-5.59645 l 4.29106,-2.572544 5.4381,-0.02259 5.43811,-0.02259 v 4.889361 4.889362 l -1.64583,1.674897 -1.64583,1.674898 -0.49131,1.484929 c -0.27022,0.816711 -0.55147,1.556711 -0.625,1.644442 -0.0735,0.08773 -3.60244,2.636291 -7.84203,5.663463 -5.3139,3.794261 -7.9413,5.620452 -8.45833,5.879005 -0.8432,0.421662 -1.42396,0.528826 -1.8404,0.339595 z m 24.81917,-24.657268 0.0212,-8.520833 9.8125,-0.02118 9.8125,-0.02118 v 8.54201 8.54201 h -9.83373 -9.83372 z"
       style="fill:#000506;stroke-width:2;stroke-miterlimit:4;stroke-dasharray:none;stroke:#ffffff;stroke-opacity:1;fill-opacity:1;opacity:0.999" />
  </g>
</svg>
